<svg width="20" height="20" viewBox="0 0 20 20" fill="none" xmlns="http://www.w3.org/2000/svg">
<path d="M2.73089 18.8C2.79861 19.4947 3.40809 20 4.15301 20H15.846C16.5909 20 17.2004 19.4737 17.2681 18.8L18.5774 6H1.42163L2.73089 18.8Z" fill="white"/>
<path d="M18.5779 2H12.8668V1.32632C12.8668 0.589474 12.2348 0 11.4447 0H8.57788C7.78781 0 7.15576 0.589474 7.15576 1.32632V2H1.42212C0.632054 2 0 2.58947 0 3.32632C0 4.06316 0.632054 4.65263 1.42212 4.65263H18.5779C19.3679 4.65263 20 4.06316 20 3.32632C20 2.58947 19.3679 2 18.5779 2Z" fill="white"/>
</svg>
